<svg width="448" height="512" viewBox="0 0 448 512" fill="none" xmlns="http://www.w3.org/2000/svg">
<path d="M265 56V342.4L224 384L183 342.41V56C183 42.7 194 32 207.63 32H240.45C243.64 31.9564 246.807 32.5434 249.769 33.7273C252.732 34.9112 255.431 36.6686 257.712 38.8987C259.993 41.1288 261.811 43.7876 263.062 46.7223C264.313 49.6571 264.971 52.81 265 56V56Z" fill="#71717A"/>
<path d="M441.48 278.31C441.25 278.55 441.01 278.79 440.77 279.02L241.44 473C236.777 477.515 230.541 480.039 224.05 480.039C217.559 480.039 211.323 477.515 206.66 473L7.22995 279C5.00553 276.875 3.22248 274.331 1.98303 271.515C0.743575 268.699 0.0720852 265.666 0.00705472 262.59C-0.0579757 259.514 0.484732 256.456 1.60407 253.59C2.7234 250.724 4.39735 248.108 6.52995 245.89C6.74995 245.65 6.98995 245.42 7.22995 245.19L29.9999 223.06C34.7495 218.509 41.0941 216.002 47.6716 216.077C54.2491 216.152 60.5351 218.802 65.1799 223.46L224 384.19L382.8 223.46C387.42 218.757 393.715 216.075 400.307 216C406.9 215.925 413.254 218.463 417.98 223.06L440.76 245.21C442.984 247.334 444.768 249.876 446.008 252.69C447.248 255.505 447.921 258.536 447.988 261.611C448.055 264.685 447.514 267.743 446.398 270.609C445.281 273.474 443.61 276.091 441.48 278.31V278.31Z" fill="#52525B"/>
</svg>
