<svg width="3000" height="1000" viewBox="0 0 3000 1000" fill="none" xmlns="http://www.w3.org/2000/svg">
<g clip-path="url(#clip0)">
<rect width="3000" height="1000" fill="#142C28"/>
<rect x="2878.92" y="-79.4645" width="836.448" height="1602.85" transform="rotate(45 2878.92 -79.4645)" fill="url(#paint0_linear)" stroke="url(#paint1_linear)" stroke-width="5"/>
<rect x="3005.2" y="-13.0533" width="836.448" height="1602.85" transform="rotate(45 3005.2 -13.0533)" fill="url(#paint2_linear)" stroke="#20453E" stroke-width="5"/>
<g opacity="0.25" filter="url(#filter0_d)">
<circle cx="2536" cy="878" r="11" fill="#60B9A9"/>
<circle cx="2615" cy="878" r="11" fill="#60B9A9"/>
<circle cx="2694" cy="878" r="11" fill="#60B9A9"/>
<circle cx="2773" cy="878" r="11" fill="#60B9A9"/>
<circle cx="2852" cy="878" r="11" fill="#60B9A9"/>
<circle cx="2931" cy="878" r="11" fill="#60B9A9"/>
<circle cx="2536" cy="944" r="11" fill="#60B9A9"/>
<circle cx="2615" cy="944" r="11" fill="#60B9A9"/>
<circle cx="2694" cy="944" r="11" fill="#60B9A9"/>
<circle cx="2773" cy="944" r="11" fill="#60B9A9"/>
<circle cx="2852" cy="944" r="11" fill="#60B9A9"/>
<circle cx="2931" cy="944" r="11" fill="#60B9A9"/>
</g>
<g opacity="0.5">
<g filter="url(#filter1_d)">
<g style="mix-blend-mode:overlay">
<path fill-rule="evenodd" clip-rule="evenodd" d="M936.192 122.864L953 100.557L969.808 122.864H970L969.904 122.991L970 123.119H969.808L953 145.426L936.192 123.119H936L936.096 122.991L936 122.864H936.192Z" fill="white" fill-opacity="0.5"/>
</g>
<g style="mix-blend-mode:overlay">
<path fill-rule="evenodd" clip-rule="evenodd" d="M944.836 122.929L953 112.095L961.164 122.929H961.257L961.211 122.991L961.257 123.053H961.164L953 133.888L944.836 123.053H944.743L944.79 122.991L944.743 122.929H944.836Z" fill="white"/>
</g>
</g>
<g filter="url(#filter2_d)">
<g style="mix-blend-mode:overlay">
<path fill-rule="evenodd" clip-rule="evenodd" d="M120.209 758.873L138.5 734.598L156.791 758.873H157L156.895 759.012L157 759.151H156.791L138.5 783.426L120.209 759.151H120L120.105 759.012L120 758.873H120.209Z" fill="white" fill-opacity="0.5"/>
</g>
<g style="mix-blend-mode:overlay">
<path fill-rule="evenodd" clip-rule="evenodd" d="M129.616 758.945L138.5 747.154L147.384 758.945H147.486L147.435 759.012L147.486 759.079H147.384L138.5 770.87L129.616 759.079H129.514L129.565 759.012L129.514 758.945H129.616Z" fill="white"/>
</g>
</g>
<g filter="url(#filter3_d)">
<g style="mix-blend-mode:overlay">
<path fill-rule="evenodd" clip-rule="evenodd" d="M-16.6724 498.053L12 460L40.6724 498.053H41L40.8362 498.27L41 498.488H40.6724L12 536.54L-16.6724 498.488H-17L-16.8362 498.27L-17 498.053H-16.6724Z" fill="white" fill-opacity="0.5"/>
</g>
<g style="mix-blend-mode:overlay">
<path fill-rule="evenodd" clip-rule="evenodd" d="M-1.92635 498.165L12.0003 479.682L25.9269 498.165H26.086L26.0064 498.27L26.086 498.376H25.9269L12.0003 516.859L-1.92635 498.376H-2.08545L-2.0059 498.27L-2.08545 498.165H-1.92635Z" fill="white"/>
</g>
</g>
<g filter="url(#filter4_d)">
<g style="mix-blend-mode:overlay">
<path fill-rule="evenodd" clip-rule="evenodd" d="M566.237 846.555L587 819L607.763 846.555H608L607.881 846.713L608 846.87H607.763L587 874.426L566.237 846.87H566L566.119 846.713L566 846.555H566.237Z" fill="white" fill-opacity="0.5"/>
</g>
<g style="mix-blend-mode:overlay">
<path fill-rule="evenodd" clip-rule="evenodd" d="M576.915 846.637L587 833.252L597.085 846.637H597.2L597.143 846.713L597.2 846.789H597.085L587 860.174L576.915 846.789H576.8L576.858 846.713L576.8 846.637H576.915Z" fill="white"/>
</g>
</g>
<g filter="url(#filter5_d)">
<g style="mix-blend-mode:overlay">
<path fill-rule="evenodd" clip-rule="evenodd" d="M85.8888 148.401L99 131L112.111 148.401H112.261L112.186 148.5L112.261 148.599H112.111L99 166L85.8888 148.599H85.739L85.8139 148.5L85.739 148.401H85.8888Z" fill="white" fill-opacity="0.5"/>
</g>
<g style="mix-blend-mode:overlay">
<path fill-rule="evenodd" clip-rule="evenodd" d="M92.6318 148.452L99.0001 140L105.368 148.452H105.441L105.405 148.5L105.441 148.548H105.368L99.0001 157L92.6318 148.548H92.5591L92.5955 148.5L92.5591 148.452H92.6318Z" fill="white"/>
</g>
</g>
<g filter="url(#filter6_d)">
<g style="mix-blend-mode:overlay">
<path fill-rule="evenodd" clip-rule="evenodd" d="M325.175 516.597L340.5 496.258L355.825 516.597H356L355.912 516.713L356 516.829H355.825L340.5 537.167L325.175 516.829H325L325.088 516.713L325 516.597H325.175Z" fill="white" fill-opacity="0.5"/>
</g>
<g style="mix-blend-mode:overlay">
<path fill-rule="evenodd" clip-rule="evenodd" d="M333.057 516.657L340.5 506.778L347.944 516.657H348.029L347.986 516.713L348.029 516.769H347.944L340.5 526.648L333.057 516.769H332.972L333.014 516.713L332.972 516.657H333.057Z" fill="white"/>
</g>
</g>
<g filter="url(#filter7_d)">
<g style="mix-blend-mode:overlay">
<path fill-rule="evenodd" clip-rule="evenodd" d="M601.869 123.007L629 87L656.131 123.007H656.441L656.286 123.213L656.441 123.419H656.131L629 159.426L601.869 123.419H601.559L601.714 123.213L601.559 123.007H601.869Z" fill="white" fill-opacity="0.5"/>
</g>
<g style="mix-blend-mode:overlay">
<path fill-rule="evenodd" clip-rule="evenodd" d="M615.822 123.113L629 105.624L642.178 123.113H642.329L642.254 123.213L642.329 123.313H642.178L629 140.802L615.822 123.313H615.672L615.747 123.213L615.672 123.113H615.822Z" fill="white"/>
</g>
</g>
<g filter="url(#filter8_d)">
<g style="mix-blend-mode:overlay">
<path fill-rule="evenodd" clip-rule="evenodd" d="M1079.73 478.589L1096 457L1112.27 478.589H1112.45L1112.36 478.713L1112.45 478.836H1112.27L1096 500.426L1079.73 478.836H1079.55L1079.64 478.713L1079.55 478.589H1079.73Z" fill="white" fill-opacity="0.5"/>
</g>
<g style="mix-blend-mode:overlay">
<path fill-rule="evenodd" clip-rule="evenodd" d="M1088.1 478.653L1096 468.167L1103.9 478.653H1103.99L1103.95 478.713L1103.99 478.773H1103.9L1096 489.259L1088.1 478.773H1088.01L1088.05 478.713L1088.01 478.653H1088.1Z" fill="white"/>
</g>
</g>
<g filter="url(#filter9_d)">
<g style="mix-blend-mode:overlay">
<path fill-rule="evenodd" clip-rule="evenodd" d="M962.107 749.092L978 728L993.893 749.092H994.075L993.984 749.213L994.075 749.333H993.893L978 770.426L962.107 749.333H961.926L962.016 749.213L961.926 749.092H962.107Z" fill="white" fill-opacity="0.5"/>
</g>
<g style="mix-blend-mode:overlay">
<path fill-rule="evenodd" clip-rule="evenodd" d="M970.281 749.155L978 738.91L985.72 749.155H985.808L985.764 749.213L985.808 749.272H985.72L978 759.517L970.281 749.272H970.193L970.237 749.213L970.193 749.155H970.281Z" fill="white"/>
</g>
</g>
</g>
<g opacity="0.5">
<rect opacity="0.5" width="35.0958" height="716.175" rx="17.5479" transform="matrix(0.7288 0.684726 -0.816773 0.576959 759.481 -22.8862)" fill="url(#paint3_linear)"/>
<rect opacity="0.5" width="15.0129" height="707.08" rx="7.50643" transform="matrix(0.7288 0.684726 -0.816773 0.576959 766.95 -15.8687)" fill="url(#paint4_linear)"/>
</g>
<g opacity="0.5">
<rect opacity="0.5" width="24.7942" height="505.957" rx="12.3971" transform="matrix(0.7288 0.684726 -0.816773 0.576959 895.232 74.4932)" fill="url(#paint5_linear)"/>
<rect opacity="0.5" width="10.6061" height="499.531" rx="5.30307" transform="matrix(0.7288 0.684726 -0.816773 0.576959 900.509 79.4509)" fill="url(#paint6_linear)"/>
</g>
<g opacity="0.5">
<rect opacity="0.5" width="43.2281" height="882.125" rx="21.614" transform="matrix(0.7288 0.684726 -0.816773 0.576959 1268.56 144.604)" fill="url(#paint7_linear)"/>
<rect opacity="0.5" width="18.4916" height="870.922" rx="9.24579" transform="matrix(0.7288 0.684726 -0.816773 0.576959 1277.76 153.247)" fill="url(#paint8_linear)"/>
</g>
<g opacity="0.9">
<g style="mix-blend-mode:overlay">
<ellipse rx="235.92" ry="235.969" transform="matrix(0.776836 0.629703 -0.628936 0.777457 1500 500.5)" fill="url(#paint9_linear)"/>
</g>
<g style="mix-blend-mode:overlay">
<ellipse rx="278.417" ry="278.476" transform="matrix(0.776836 0.629703 -0.628936 0.777457 1500 500.5)" fill="url(#paint10_linear)"/>
</g>
<g style="mix-blend-mode:overlay">
<ellipse rx="320.354" ry="320.422" transform="matrix(0.776836 0.629703 -0.628936 0.777457 1500 500.5)" fill="url(#paint11_linear)"/>
</g>
<g style="mix-blend-mode:overlay">
<ellipse rx="352.087" ry="352.161" transform="matrix(0.776836 0.629703 -0.628936 0.777457 1500 500.5)" fill="url(#paint12_linear)"/>
</g>
</g>
<g filter="url(#filter10_d)">
<ellipse rx="193.931" ry="193.972" transform="matrix(0.776836 0.629703 -0.628936 0.777457 1500.5 501)" fill="#5BBDC0"/>
</g>
<mask id="mask0" mask-type="alpha" maskUnits="userSpaceOnUse" x="1306" y="306" width="389" height="390">
<ellipse rx="193.877" ry="194.026" transform="matrix(0.938834 0.34437 -0.343757 0.939059 1500.5 501)" fill="#5BC062"/>
</mask>
<g mask="url(#mask0)">
<rect width="225.411" height="19.8702" rx="9.93509" transform="matrix(0.938834 0.34437 -0.343757 0.939059 1340.22 235.542)" fill="#449194"/>
<rect width="191.541" height="19.8702" rx="9.93509" transform="matrix(0.938834 0.34437 -0.343757 0.939059 1340.22 235.542)" fill="#60B9B9"/>
<rect width="225.411" height="19.8702" rx="9.93509" transform="matrix(0.938834 0.34437 -0.343757 0.939059 1355.32 262.245)" fill="#449194"/>
<rect width="196.213" height="19.8702" rx="9.93509" transform="matrix(0.938834 0.34437 -0.343757 0.939059 1355.32 262.245)" fill="#5BBDC0"/>
<rect width="196.213" height="19.8702" rx="9.93509" transform="matrix(0.938834 0.34437 -0.343757 0.939059 1355.32 262.245)" fill="#60B9B9"/>
<rect width="225.411" height="19.8702" rx="9.93509" transform="matrix(0.938834 0.34437 -0.343757 0.939059 1337.53 276.882)" fill="#398384"/>
<rect width="188.037" height="19.8702" rx="9.93509" transform="matrix(0.938834 0.34437 -0.343757 0.939059 1337.53 276.882)" fill="#7CCECE"/>
<rect width="225.411" height="19.8702" rx="9.93509" transform="matrix(0.938834 0.34437 -0.343757 0.939059 1299.99 284.28)" fill="#449194"/>
<rect width="186.869" height="19.8702" rx="9.93509" transform="matrix(0.938834 0.34437 -0.343757 0.939059 1299.99 284.28)" fill="#60B9B9"/>
<rect width="225.411" height="19.8702" rx="9.93509" transform="matrix(0.938834 0.34437 -0.343757 0.939059 1316.19 311.385)" fill="#398384"/>
<rect width="186.869" height="19.8702" rx="9.93509" transform="matrix(0.938834 0.34437 -0.343757 0.939059 1316.19 311.385)" fill="#60B9B9"/>
<rect width="225.411" height="19.8702" rx="9.93509" transform="matrix(0.938834 0.34437 -0.343757 0.939059 1351.03 345.328)" fill="#449194"/>
<rect width="164.679" height="19.8702" rx="9.93509" transform="matrix(0.938834 0.34437 -0.343757 0.939059 1351.03 345.328)" fill="#7CCECE"/>
<rect width="225.411" height="19.8702" rx="9.93509" transform="matrix(0.938834 0.34437 -0.343757 0.939059 1321.17 355.541)" fill="#449194"/>
<rect width="172.854" height="19.8702" rx="9.93509" transform="matrix(0.938834 0.34437 -0.343757 0.939059 1321.17 355.541)" fill="#7CCECE"/>
<rect width="225.411" height="19.8702" rx="9.93509" transform="matrix(0.938834 0.34437 -0.343757 0.939059 1272.67 358.917)" fill="#398384"/>
<rect width="186.869" height="19.8702" rx="9.93509" transform="matrix(0.938834 0.34437 -0.343757 0.939059 1272.67 358.917)" fill="#60B9B9"/>
<rect width="225.411" height="19.8702" rx="9.93509" transform="matrix(0.938834 0.34437 -0.343757 0.939059 1236.24 366.717)" fill="#398384"/>
<rect width="183.366" height="19.8702" rx="9.93509" transform="matrix(0.938834 0.34437 -0.343757 0.939059 1236.24 366.717)" fill="#7CCECE"/>
<rect width="225.411" height="19.8702" rx="9.93509" transform="matrix(0.938834 0.34437 -0.343757 0.939059 1294.1 409.106)" fill="#449194"/>
<rect width="169.35" height="19.8702" rx="9.93509" transform="matrix(0.938834 0.34437 -0.343757 0.939059 1294.1 409.106)" fill="#60B9B9"/>
<rect width="270.961" height="19.8702" rx="9.93509" transform="matrix(0.938834 0.34437 -0.343757 0.939059 1293.85 430.178)" fill="#449194"/>
<rect width="220.74" height="19.8702" rx="9.93509" transform="matrix(0.938834 0.34437 -0.343757 0.939059 1293.85 430.178)" fill="#60B9B9"/>
<rect width="270.961" height="19.8702" rx="9.93509" transform="matrix(0.938834 0.34437 -0.343757 0.939059 1247.54 434.358)" fill="#398384"/>
<rect width="228.915" height="19.8702" rx="9.93509" transform="matrix(0.938834 0.34437 -0.343757 0.939059 1247.54 434.358)" fill="#7CCECE"/>
<rect width="270.961" height="19.8702" rx="9.93509" transform="matrix(0.938834 0.34437 -0.343757 0.939059 1226.46 447.789)" fill="#398384"/>
<rect width="218.404" height="19.8702" rx="9.93509" transform="matrix(0.938834 0.34437 -0.343757 0.939059 1226.46 447.789)" fill="#60B9B9"/>
<rect width="270.961" height="19.8702" rx="9.93509" transform="matrix(0.938834 0.34437 -0.343757 0.939059 1172.48 449.153)" fill="#449194"/>
<rect width="227.747" height="19.8702" rx="9.93509" transform="matrix(0.938834 0.34437 -0.343757 0.939059 1172.48 449.153)" fill="#60B9B9"/>
<rect width="270.961" height="19.8702" rx="9.93509" transform="matrix(0.938834 0.34437 -0.343757 0.939059 1212.8 485.107)" fill="#398384"/>
<rect width="221.907" height="19.8702" rx="9.93509" transform="matrix(0.938834 0.34437 -0.343757 0.939059 1212.8 485.107)" fill="#7CCECE"/>
<rect width="270.961" height="19.8702" rx="9.93509" transform="matrix(0.938834 0.34437 -0.343757 0.939059 1241.05 516.637)" fill="#398384"/>
<rect width="213.732" height="19.8702" rx="9.93509" transform="matrix(0.938834 0.34437 -0.343757 0.939059 1241.05 516.637)" fill="#7CCECE"/>
<rect width="270.961" height="19.8702" rx="9.93509" transform="matrix(0.938834 0.34437 -0.343757 0.939059 1213.39 527.655)" fill="#449194"/>
<rect width="217.236" height="19.8702" rx="9.93509" transform="matrix(0.938834 0.34437 -0.343757 0.939059 1213.39 527.655)" fill="#60B9B9"/>
<rect width="270.961" height="19.8702" rx="9.93509" transform="matrix(0.938834 0.34437 -0.343757 0.939059 1192.31 541.085)" fill="#449194"/>
<rect width="219.572" height="19.8702" rx="9.93509" transform="matrix(0.938834 0.34437 -0.343757 0.939059 1192.31 541.085)" fill="#60B9B9"/>
<rect width="270.961" height="19.8702" rx="9.93509" transform="matrix(0.938834 0.34437 -0.343757 0.939059 1211.79 569.397)" fill="#398384"/>
<rect width="210.228" height="19.8702" rx="9.93509" transform="matrix(0.938834 0.34437 -0.343757 0.939059 1211.79 569.397)" fill="#7CCECE"/>
<rect width="270.961" height="19.8702" rx="9.93509" transform="matrix(0.938834 0.34437 -0.343757 0.939059 1183.03 580.013)" fill="#398384"/>
<rect width="227.747" height="19.8702" rx="9.93509" transform="matrix(0.938834 0.34437 -0.343757 0.939059 1183.03 580.013)" fill="#60B9B9"/>
</g>
<g filter="url(#filter11_i)">
<ellipse rx="15.1831" ry="15.1948" transform="matrix(0.938834 0.34437 -0.343757 0.939059 1578.02 503.288)" fill="#398384"/>
</g>
<g filter="url(#filter12_i)">
<ellipse rx="19.8549" ry="19.8702" transform="matrix(0.938834 0.34437 -0.343757 0.939059 1525.82 632.295)" fill="#398384"/>
</g>
<g filter="url(#filter13_i)">
<ellipse rx="26.2785" ry="26.2988" transform="matrix(0.938834 0.34437 -0.343757 0.939059 1599.58 398.526)" fill="#398384"/>
</g>
<mask id="mask1" mask-type="alpha" maskUnits="userSpaceOnUse" x="1306" y="306" width="389" height="390">
<ellipse rx="193.893" ry="194.011" transform="matrix(0.776991 0.629829 -0.62881 0.777302 1500.5 501)" fill="#5B77C0"/>
</mask>
<g mask="url(#mask1)">
<g filter="url(#filter14_i)">
<ellipse rx="11.6793" ry="11.6883" transform="matrix(0.938834 0.34437 -0.343757 0.939059 1688.2 487.681)" fill="#398384"/>
</g>
</g>
<g filter="url(#filter15_i)">
<ellipse rx="19.2709" ry="19.2858" transform="matrix(0.938834 0.34437 -0.343757 0.939059 1635.64 541.233)" fill="#398384"/>
</g>
<g filter="url(#filter16_i)">
<ellipse rx="11.6793" ry="11.6883" transform="matrix(0.938834 0.34437 -0.343757 0.939059 1600.99 613.804)" fill="#398384"/>
</g>
</g>
<defs>
<filter id="filter0_d" x="2521" y="867" width="425" height="96" filterUnits="userSpaceOnUse" color-interpolation-filters="sRGB">
<feFlood flood-opacity="0" result="BackgroundImageFix"/>
<feColorMatrix in="SourceAlpha" type="matrix" values="0 0 0 0 0 0 0 0 0 0 0 0 0 0 0 0 0 0 127 0"/>
<feOffset dy="4"/>
<feGaussianBlur stdDeviation="2"/>
<feColorMatrix type="matrix" values="0 0 0 0 0 0 0 0 0 0 0 0 0 0 0 0 0 0 0.25 0"/>
<feBlend mode="normal" in2="BackgroundImageFix" result="effect1_dropShadow"/>
<feBlend mode="normal" in="SourceGraphic" in2="effect1_dropShadow" result="shape"/>
</filter>
<filter id="filter1_d" x="926" y="90.5571" width="64" height="74.8684" filterUnits="userSpaceOnUse" color-interpolation-filters="sRGB">
<feFlood flood-opacity="0" result="BackgroundImageFix"/>
<feColorMatrix in="SourceAlpha" type="matrix" values="0 0 0 0 0 0 0 0 0 0 0 0 0 0 0 0 0 0 127 0"/>
<feOffset dx="5" dy="5"/>
<feGaussianBlur stdDeviation="7.5"/>
<feColorMatrix type="matrix" values="0 0 0 0 0.4875 0 0 0 0 0.591771 0 0 0 0 0.866667 0 0 0 0.1 0"/>
<feBlend mode="normal" in2="BackgroundImageFix" result="effect1_dropShadow"/>
<feBlend mode="normal" in="SourceGraphic" in2="effect1_dropShadow" result="shape"/>
</filter>
<filter id="filter2_d" x="110" y="724.598" width="67" height="78.8274" filterUnits="userSpaceOnUse" color-interpolation-filters="sRGB">
<feFlood flood-opacity="0" result="BackgroundImageFix"/>
<feColorMatrix in="SourceAlpha" type="matrix" values="0 0 0 0 0 0 0 0 0 0 0 0 0 0 0 0 0 0 127 0"/>
<feOffset dx="5" dy="5"/>
<feGaussianBlur stdDeviation="7.5"/>
<feColorMatrix type="matrix" values="0 0 0 0 0.4875 0 0 0 0 0.591771 0 0 0 0 0.866667 0 0 0 0.1 0"/>
<feBlend mode="normal" in2="BackgroundImageFix" result="effect1_dropShadow"/>
<feBlend mode="normal" in="SourceGraphic" in2="effect1_dropShadow" result="shape"/>
</filter>
<filter id="filter3_d" x="-27" y="450" width="88" height="106.54" filterUnits="userSpaceOnUse" color-interpolation-filters="sRGB">
<feFlood flood-opacity="0" result="BackgroundImageFix"/>
<feColorMatrix in="SourceAlpha" type="matrix" values="0 0 0 0 0 0 0 0 0 0 0 0 0 0 0 0 0 0 127 0"/>
<feOffset dx="5" dy="5"/>
<feGaussianBlur stdDeviation="7.5"/>
<feColorMatrix type="matrix" values="0 0 0 0 0.4875 0 0 0 0 0.591771 0 0 0 0 0.866667 0 0 0 0.1 0"/>
<feBlend mode="normal" in2="BackgroundImageFix" result="effect1_dropShadow"/>
<feBlend mode="normal" in="SourceGraphic" in2="effect1_dropShadow" result="shape"/>
</filter>
<filter id="filter4_d" x="556" y="809" width="72" height="85.4257" filterUnits="userSpaceOnUse" color-interpolation-filters="sRGB">
<feFlood flood-opacity="0" result="BackgroundImageFix"/>
<feColorMatrix in="SourceAlpha" type="matrix" values="0 0 0 0 0 0 0 0 0 0 0 0 0 0 0 0 0 0 127 0"/>
<feOffset dx="5" dy="5"/>
<feGaussianBlur stdDeviation="7.5"/>
<feColorMatrix type="matrix" values="0 0 0 0 0.4875 0 0 0 0 0.591771 0 0 0 0 0.866667 0 0 0 0.1 0"/>
<feBlend mode="normal" in2="BackgroundImageFix" result="effect1_dropShadow"/>
<feBlend mode="normal" in="SourceGraphic" in2="effect1_dropShadow" result="shape"/>
</filter>
<filter id="filter5_d" x="75.739" y="121" width="56.522" height="65" filterUnits="userSpaceOnUse" color-interpolation-filters="sRGB">
<feFlood flood-opacity="0" result="BackgroundImageFix"/>
<feColorMatrix in="SourceAlpha" type="matrix" values="0 0 0 0 0 0 0 0 0 0 0 0 0 0 0 0 0 0 127 0"/>
<feOffset dx="5" dy="5"/>
<feGaussianBlur stdDeviation="7.5"/>
<feColorMatrix type="matrix" values="0 0 0 0 0.4875 0 0 0 0 0.591771 0 0 0 0 0.866667 0 0 0 0.1 0"/>
<feBlend mode="normal" in2="BackgroundImageFix" result="effect1_dropShadow"/>
<feBlend mode="normal" in="SourceGraphic" in2="effect1_dropShadow" result="shape"/>
</filter>
<filter id="filter6_d" x="315" y="486.258" width="61" height="70.9094" filterUnits="userSpaceOnUse" color-interpolation-filters="sRGB">
<feFlood flood-opacity="0" result="BackgroundImageFix"/>
<feColorMatrix in="SourceAlpha" type="matrix" values="0 0 0 0 0 0 0 0 0 0 0 0 0 0 0 0 0 0 127 0"/>
<feOffset dx="5" dy="5"/>
<feGaussianBlur stdDeviation="7.5"/>
<feColorMatrix type="matrix" values="0 0 0 0 0.4875 0 0 0 0 0.591771 0 0 0 0 0.866667 0 0 0 0.1 0"/>
<feBlend mode="normal" in2="BackgroundImageFix" result="effect1_dropShadow"/>
<feBlend mode="normal" in="SourceGraphic" in2="effect1_dropShadow" result="shape"/>
</filter>
<filter id="filter7_d" x="591.559" y="77" width="84.8821" height="102.426" filterUnits="userSpaceOnUse" color-interpolation-filters="sRGB">
<feFlood flood-opacity="0" result="BackgroundImageFix"/>
<feColorMatrix in="SourceAlpha" type="matrix" values="0 0 0 0 0 0 0 0 0 0 0 0 0 0 0 0 0 0 127 0"/>
<feOffset dx="5" dy="5"/>
<feGaussianBlur stdDeviation="7.5"/>
<feColorMatrix type="matrix" values="0 0 0 0 0.4875 0 0 0 0 0.591771 0 0 0 0 0.866667 0 0 0 0.1 0"/>
<feBlend mode="normal" in2="BackgroundImageFix" result="effect1_dropShadow"/>
<feBlend mode="normal" in="SourceGraphic" in2="effect1_dropShadow" result="shape"/>
</filter>
<filter id="filter8_d" x="1069.55" y="447" width="62.9067" height="73.4257" filterUnits="userSpaceOnUse" color-interpolation-filters="sRGB">
<feFlood flood-opacity="0" result="BackgroundImageFix"/>
<feColorMatrix in="SourceAlpha" type="matrix" values="0 0 0 0 0 0 0 0 0 0 0 0 0 0 0 0 0 0 127 0"/>
<feOffset dx="5" dy="5"/>
<feGaussianBlur stdDeviation="7.5"/>
<feColorMatrix type="matrix" values="0 0 0 0 0.4875 0 0 0 0 0.591771 0 0 0 0 0.866667 0 0 0 0.1 0"/>
<feBlend mode="normal" in2="BackgroundImageFix" result="effect1_dropShadow"/>
<feBlend mode="normal" in="SourceGraphic" in2="effect1_dropShadow" result="shape"/>
</filter>
<filter id="filter9_d" x="951.926" y="718" width="62.149" height="72.4257" filterUnits="userSpaceOnUse" color-interpolation-filters="sRGB">
<feFlood flood-opacity="0" result="BackgroundImageFix"/>
<feColorMatrix in="SourceAlpha" type="matrix" values="0 0 0 0 0 0 0 0 0 0 0 0 0 0 0 0 0 0 127 0"/>
<feOffset dx="5" dy="5"/>
<feGaussianBlur stdDeviation="7.5"/>
<feColorMatrix type="matrix" values="0 0 0 0 0.4875 0 0 0 0 0.591771 0 0 0 0 0.866667 0 0 0 0.1 0"/>
<feBlend mode="normal" in2="BackgroundImageFix" result="effect1_dropShadow"/>
<feBlend mode="normal" in="SourceGraphic" in2="effect1_dropShadow" result="shape"/>
</filter>
<filter id="filter10_d" x="1290.64" y="290.944" width="419.72" height="420.112" filterUnits="userSpaceOnUse" color-interpolation-filters="sRGB">
<feFlood flood-opacity="0" result="BackgroundImageFix"/>
<feColorMatrix in="SourceAlpha" type="matrix" values="0 0 0 0 0 0 0 0 0 0 0 0 0 0 0 0 0 0 127 0"/>
<feMorphology radius="1" operator="dilate" in="SourceAlpha" result="effect1_dropShadow"/>
<feOffset/>
<feGaussianBlur stdDeviation="7.5"/>
<feColorMatrix type="matrix" values="0 0 0 0 0.388235 0 0 0 0 0.764706 0 0 0 0 0.756863 0 0 0 1 0"/>
<feBlend mode="normal" in2="BackgroundImageFix" result="effect1_dropShadow"/>
<feBlend mode="normal" in="SourceGraphic" in2="effect1_dropShadow" result="shape"/>
</filter>
<filter id="filter11_i" x="1562.83" y="488.088" width="30.3709" height="34.4016" filterUnits="userSpaceOnUse" color-interpolation-filters="sRGB">
<feFlood flood-opacity="0" result="BackgroundImageFix"/>
<feBlend mode="normal" in="SourceGraphic" in2="BackgroundImageFix" result="shape"/>
<feColorMatrix in="SourceAlpha" type="matrix" values="0 0 0 0 0 0 0 0 0 0 0 0 0 0 0 0 0 0 127 0" result="hardAlpha"/>
<feOffset dy="4"/>
<feGaussianBlur stdDeviation="2"/>
<feComposite in2="hardAlpha" operator="arithmetic" k2="-1" k3="1"/>
<feColorMatrix type="matrix" values="0 0 0 0 0 0 0 0 0 0 0 0 0 0 0 0 0 0 0.25 0"/>
<feBlend mode="normal" in2="shape" result="effect1_innerShadow"/>
</filter>
<filter id="filter12_i" x="1505.96" y="612.417" width="39.7158" height="43.7559" filterUnits="userSpaceOnUse" color-interpolation-filters="sRGB">
<feFlood flood-opacity="0" result="BackgroundImageFix"/>
<feBlend mode="normal" in="SourceGraphic" in2="BackgroundImageFix" result="shape"/>
<feColorMatrix in="SourceAlpha" type="matrix" values="0 0 0 0 0 0 0 0 0 0 0 0 0 0 0 0 0 0 127 0" result="hardAlpha"/>
<feOffset dy="4"/>
<feGaussianBlur stdDeviation="2"/>
<feComposite in2="hardAlpha" operator="arithmetic" k2="-1" k3="1"/>
<feColorMatrix type="matrix" values="0 0 0 0 0 0 0 0 0 0 0 0 0 0 0 0 0 0 0.25 0"/>
<feBlend mode="normal" in2="shape" result="effect1_innerShadow"/>
</filter>
<filter id="filter13_i" x="1573.29" y="372.217" width="52.565" height="56.6181" filterUnits="userSpaceOnUse" color-interpolation-filters="sRGB">
<feFlood flood-opacity="0" result="BackgroundImageFix"/>
<feBlend mode="normal" in="SourceGraphic" in2="BackgroundImageFix" result="shape"/>
<feColorMatrix in="SourceAlpha" type="matrix" values="0 0 0 0 0 0 0 0 0 0 0 0 0 0 0 0 0 0 127 0" result="hardAlpha"/>
<feOffset dy="4"/>
<feGaussianBlur stdDeviation="2"/>
<feComposite in2="hardAlpha" operator="arithmetic" k2="-1" k3="1"/>
<feColorMatrix type="matrix" values="0 0 0 0 0 0 0 0 0 0 0 0 0 0 0 0 0 0 0.25 0"/>
<feBlend mode="normal" in2="shape" result="effect1_innerShadow"/>
</filter>
<filter id="filter14_i" x="1676.52" y="475.989" width="23.3622" height="27.3858" filterUnits="userSpaceOnUse" color-interpolation-filters="sRGB">
<feFlood flood-opacity="0" result="BackgroundImageFix"/>
<feBlend mode="normal" in="SourceGraphic" in2="BackgroundImageFix" result="shape"/>
<feColorMatrix in="SourceAlpha" type="matrix" values="0 0 0 0 0 0 0 0 0 0 0 0 0 0 0 0 0 0 127 0" result="hardAlpha"/>
<feOffset dy="4"/>
<feGaussianBlur stdDeviation="2"/>
<feComposite in2="hardAlpha" operator="arithmetic" k2="-1" k3="1"/>
<feColorMatrix type="matrix" values="0 0 0 0 0 0 0 0 0 0 0 0 0 0 0 0 0 0 0.25 0"/>
<feBlend mode="normal" in2="shape" result="effect1_innerShadow"/>
</filter>
<filter id="filter15_i" x="1616.37" y="521.939" width="38.5477" height="42.5866" filterUnits="userSpaceOnUse" color-interpolation-filters="sRGB">
<feFlood flood-opacity="0" result="BackgroundImageFix"/>
<feBlend mode="normal" in="SourceGraphic" in2="BackgroundImageFix" result="shape"/>
<feColorMatrix in="SourceAlpha" type="matrix" values="0 0 0 0 0 0 0 0 0 0 0 0 0 0 0 0 0 0 127 0" result="hardAlpha"/>
<feOffset dy="4"/>
<feGaussianBlur stdDeviation="2"/>
<feComposite in2="hardAlpha" operator="arithmetic" k2="-1" k3="1"/>
<feColorMatrix type="matrix" values="0 0 0 0 0 0 0 0 0 0 0 0 0 0 0 0 0 0 0.25 0"/>
<feBlend mode="normal" in2="shape" result="effect1_innerShadow"/>
</filter>
<filter id="filter16_i" x="1589.31" y="602.111" width="23.3622" height="27.3858" filterUnits="userSpaceOnUse" color-interpolation-filters="sRGB">
<feFlood flood-opacity="0" result="BackgroundImageFix"/>
<feBlend mode="normal" in="SourceGraphic" in2="BackgroundImageFix" result="shape"/>
<feColorMatrix in="SourceAlpha" type="matrix" values="0 0 0 0 0 0 0 0 0 0 0 0 0 0 0 0 0 0 127 0" result="hardAlpha"/>
<feOffset dy="4"/>
<feGaussianBlur stdDeviation="2"/>
<feComposite in2="hardAlpha" operator="arithmetic" k2="-1" k3="1"/>
<feColorMatrix type="matrix" values="0 0 0 0 0 0 0 0 0 0 0 0 0 0 0 0 0 0 0.25 0"/>
<feBlend mode="normal" in2="shape" result="effect1_innerShadow"/>
</filter>
<linearGradient id="paint0_linear" x1="3299.64" y1="-83" x2="3299.64" y2="1524.85" gradientUnits="userSpaceOnUse">
<stop stop-color="#224D45"/>
<stop offset="0.769886" stop-color="#142C28" stop-opacity="0.35"/>
</linearGradient>
<linearGradient id="paint1_linear" x1="3299.64" y1="-83" x2="3299.64" y2="1524.85" gradientUnits="userSpaceOnUse">
<stop stop-color="#20453E"/>
<stop offset="1" stop-color="#20453E" stop-opacity="0"/>
</linearGradient>
<linearGradient id="paint2_linear" x1="3425.93" y1="-16.5889" x2="3425.93" y2="1591.26" gradientUnits="userSpaceOnUse">
<stop stop-color="#357368"/>
<stop offset="0.769886" stop-color="#142C28" stop-opacity="0.35"/>
</linearGradient>
<linearGradient id="paint3_linear" x1="17.5479" y1="0" x2="17.5479" y2="716.175" gradientUnits="userSpaceOnUse">
<stop offset="0.348958" stop-color="#449486" stop-opacity="0"/>
<stop offset="1" stop-color="#7CDDCC"/>
</linearGradient>
<linearGradient id="paint4_linear" x1="7.50643" y1="0" x2="7.50643" y2="707.08" gradientUnits="userSpaceOnUse">
<stop offset="0.348958" stop-color="#449486" stop-opacity="0"/>
<stop offset="1" stop-color="#7CDDCC"/>
</linearGradient>
<linearGradient id="paint5_linear" x1="12.3971" y1="0" x2="12.3971" y2="505.957" gradientUnits="userSpaceOnUse">
<stop offset="0.348958" stop-color="#449486" stop-opacity="0"/>
<stop offset="1" stop-color="#7CDDCC"/>
</linearGradient>
<linearGradient id="paint6_linear" x1="5.30307" y1="0" x2="5.30307" y2="499.531" gradientUnits="userSpaceOnUse">
<stop offset="0.348958" stop-color="#449486" stop-opacity="0"/>
<stop offset="1" stop-color="#7CDDCC"/>
</linearGradient>
<linearGradient id="paint7_linear" x1="21.614" y1="0" x2="21.614" y2="882.125" gradientUnits="userSpaceOnUse">
<stop offset="0.348958" stop-color="#449486" stop-opacity="0"/>
<stop offset="1" stop-color="#7CDDCC"/>
</linearGradient>
<linearGradient id="paint8_linear" x1="9.24579" y1="0" x2="9.24579" y2="870.922" gradientUnits="userSpaceOnUse">
<stop offset="0.348958" stop-color="#449486" stop-opacity="0"/>
<stop offset="1" stop-color="#7CDDCC"/>
</linearGradient>
<linearGradient id="paint9_linear" x1="235.92" y1="0" x2="235.92" y2="471.938" gradientUnits="userSpaceOnUse">
<stop stop-color="white" stop-opacity="0.1"/>
<stop offset="1" stop-color="white" stop-opacity="0.1"/>
</linearGradient>
<linearGradient id="paint10_linear" x1="278.417" y1="0" x2="278.417" y2="556.952" gradientUnits="userSpaceOnUse">
<stop stop-color="white" stop-opacity="0.1"/>
<stop offset="1" stop-color="white" stop-opacity="0.1"/>
</linearGradient>
<linearGradient id="paint11_linear" x1="320.354" y1="0" x2="320.354" y2="640.843" gradientUnits="userSpaceOnUse">
<stop stop-color="white" stop-opacity="0.1"/>
<stop offset="1" stop-color="white" stop-opacity="0.1"/>
</linearGradient>
<linearGradient id="paint12_linear" x1="352.087" y1="0" x2="352.087" y2="704.321" gradientUnits="userSpaceOnUse">
<stop stop-color="white" stop-opacity="0.1"/>
<stop offset="1" stop-color="white" stop-opacity="0.1"/>
</linearGradient>
<clipPath id="clip0">
<rect width="3000" height="1000" fill="white"/>
</clipPath>
</defs>
</svg>
