<?xml version="1.0" standalone="no"?>
<!DOCTYPE svg PUBLIC "-//W3C//DTD SVG 20010904//EN"
 "http://www.w3.org/TR/2001/REC-SVG-20010904/DTD/svg10.dtd">
<svg version="1.0" xmlns="http://www.w3.org/2000/svg"
 width="2048.000000pt" height="700.000000pt" viewBox="0 0 2048.000000 700.000000"
 preserveAspectRatio="xMidYMid meet">

<g transform="translate(0.000000,700.000000) scale(0.100000,-0.100000)"
fill="#EEEEEE" stroke="none">
<path d="M672 6448 c-9 -9 -12 -587 -12 -2538 0 -2435 1 -2528 18 -2543 17
-15 66 -17 499 -17 452 0 481 1 496 18 16 17 17 208 17 2536 0 1716 -3 2523
-10 2537 -10 18 -27 19 -503 19 -370 0 -496 -3 -505 -12z"/>
<path d="M3170 6453 c1 -5 -79 -1147 -176 -2540 -147 -2094 -175 -2534 -165
-2547 12 -14 69 -16 482 -16 465 0 469 0 469 20 0 12 29 521 65 1133 78 1358
111 2018 131 2655 4 117 10 209 14 205 4 -4 44 -154 88 -333 200 -795 315
-1166 1083 -3498 l41 -122 396 2 396 3 381 1080 c210 594 433 1226 497 1405
139 390 295 863 409 1244 l84 280 6 -390 c9 -533 18 -730 121 -2812 l43 -872
486 0 c450 0 487 1 501 18 13 15 -2 290 -138 2517 -84 1375 -153 2517 -154
2538 l0 37 -657 -2 -657 -3 -348 -960 c-478 -1318 -622 -1754 -818 -2475 -40
-146 -76 -268 -79 -272 -4 -5 -20 45 -35 110 -86 354 -244 922 -364 1312 -38
124 -215 650 -392 1170 -177 520 -336 984 -352 1033 l-30 87 -664 0 c-365 0
-664 -3 -664 -7z"/>
<path d="M12900 3943 c-215 -4 -479 -23 -625 -44 -592 -85 -1076 -310 -1546
-717 -171 -148 -467 -457 -769 -802 -592 -677 -863 -949 -1231 -1236 -333
-260 -751 -502 -1154 -668 -566 -233 -1248 -385 -2029 -451 -93 -8 -171 -17
-174 -20 -3 -3 3395 -5 7551 -5 l7557 0 0 1975 0 1975 -3727 -2 c-2051 -1
-3784 -3 -3853 -5z m-1056 -1221 c33 -12 64 -26 69 -31 5 -5 -1 -38 -14 -81
-18 -53 -27 -70 -39 -66 -8 2 -42 14 -75 26 -91 34 -214 38 -287 11 -65 -25
-112 -72 -127 -128 -13 -47 -13 -59 -1 -105 22 -79 80 -124 259 -199 124 -53
234 -121 267 -166 60 -81 69 -112 69 -233 0 -106 -2 -120 -28 -172 -49 -100
-161 -181 -285 -207 -74 -15 -244 -13 -325 4 -72 15 -177 58 -177 72 0 10 39
133 45 143 2 4 29 -5 60 -21 30 -15 89 -35 131 -45 226 -50 400 41 399 210 -1
39 -8 75 -20 100 -25 52 -98 107 -192 145 -216 88 -306 151 -360 253 -25 48
-28 63 -28 153 0 95 2 103 34 163 51 94 131 156 241 187 84 23 306 15 384 -13z
m7566 7 c77 -12 172 -54 221 -97 72 -63 118 -198 104 -306 -15 -116 -91 -223
-196 -277 -40 -20 -42 -23 -25 -33 90 -52 134 -132 183 -330 31 -128 66 -256
80 -292 4 -11 -13 -14 -90 -14 -113 0 -98 -22 -161 232 -49 197 -65 236 -113
284 -45 45 -114 64 -235 64 l-98 0 0 -290 0 -290 -90 0 -90 0 0 669 0 669 68
7 c37 3 74 8 82 9 37 8 301 5 360 -5z m-7071 -42 c31 -126 202 -864 216 -937
20 -102 25 -123 31 -117 3 3 18 60 34 128 15 68 78 312 139 542 61 229 111
419 111 422 0 3 44 5 98 5 l97 0 103 -433 c56 -237 111 -477 122 -531 20 -99
25 -114 35 -104 3 3 34 122 70 264 35 142 95 380 134 527 39 148 71 271 71
273 0 2 43 4 96 4 86 0 95 -2 90 -17 -3 -10 -82 -290 -176 -623 -94 -333 -178
-629 -186 -657 l-15 -53 -97 0 -97 0 -103 428 c-56 235 -111 472 -122 526 -29
142 -31 142 -65 -6 -18 -78 -220 -827 -251 -930 -5 -16 -19 -18 -102 -18 l-97
0 -168 668 c-92 367 -168 670 -167 675 0 4 42 7 94 7 l94 0 11 -43z m1851
-632 l0 -675 -90 0 -90 0 0 675 0 675 90 0 90 0 0 -675z m645 658 c56 -147
276 -791 308 -903 23 -82 45 -150 49 -150 4 0 12 19 18 43 32 117 259 764 355
1010 6 15 22 17 121 17 l113 0 5 -32 c3 -18 21 -305 41 -638 19 -333 37 -622
40 -642 l5 -38 -89 0 -90 0 -5 53 c-8 72 -35 577 -46 835 -4 118 -10 216 -13
218 -3 3 -26 -59 -52 -138 -26 -79 -111 -316 -187 -528 -77 -212 -145 -398
-150 -413 -10 -27 -12 -28 -80 -25 l-70 3 -129 380 c-71 209 -150 450 -175
535 -25 85 -48 161 -50 169 -11 33 -15 -9 -25 -210 -5 -118 -18 -355 -29 -527
-11 -172 -20 -322 -20 -332 0 -18 -7 -20 -90 -20 l-90 0 5 38 c3 20 23 309 45
642 23 333 43 620 46 638 l5 32 113 0 c99 0 115 -2 121 -17z m1660 0 c56 -147
276 -791 308 -903 23 -82 45 -150 49 -150 4 0 12 19 18 43 32 117 259 764 355
1010 6 15 22 17 121 17 l113 0 5 -32 c3 -18 21 -305 41 -638 19 -333 37 -622
40 -642 l5 -38 -89 0 -90 0 -5 53 c-8 72 -35 577 -46 835 -4 118 -10 216 -13
218 -3 3 -26 -59 -52 -138 -26 -79 -111 -316 -187 -528 -77 -212 -145 -398
-150 -413 -10 -27 -12 -28 -80 -25 l-70 3 -129 380 c-71 209 -150 450 -175
535 -25 85 -48 161 -50 169 -11 33 -15 -9 -25 -210 -5 -118 -18 -355 -29 -527
-11 -172 -20 -322 -20 -332 0 -18 -7 -20 -90 -20 l-90 0 5 38 c3 20 23 309 45
642 23 333 43 620 46 638 l5 32 113 0 c99 0 115 -2 121 -17z m2105 -58 l0 -75
-280 0 -280 0 0 -210 0 -210 265 0 265 0 0 -75 0 -75 -265 0 -265 0 0 -240 0
-240 295 0 295 0 0 -75 0 -75 -385 0 -385 0 0 675 0 675 370 0 370 0 0 -75z"/>
<path d="M19135 2591 l-50 -6 0 -240 0 -240 131 1 c117 1 136 3 185 26 99 46
148 118 149 221 0 183 -150 269 -415 238z"/>
</g>
</svg>
