<svg width="400" height="400" viewBox="0 0 400 400" fill="none" xmlns="http://www.w3.org/2000/svg">
<rect width="400" height="400" fill="#E87500"/>
<path d="M315.188 98.1122L309.541 99.6329C306.826 94.0117 303.134 90.9431 294.174 90.9431H209.763V319.838C209.763 329.071 213.863 332.384 219.51 332.384L220.623 337H165.86L166.974 332.384C172.404 332.384 176.965 328.799 176.965 319.838V90.9431H92.7984C84.0831 90.9431 79.2231 94.5277 77.1597 99.6329L71.5395 98.1122L79.6847 63C84.1252 64.0741 88.6971 64.504 93.2599 64.2763H295.64C299.435 64.3279 303.221 63.8991 306.908 63L315.188 98.1122ZM284.888 304.25C261.539 304.25 232.406 303.409 225.157 302.594V297.38C226.301 297.457 227.449 297.308 228.534 296.939C229.619 296.571 230.621 295.992 231.482 295.234C232.343 294.477 233.045 293.557 233.548 292.527C234.052 291.497 234.347 290.378 234.416 289.233C234.429 288.998 234.429 288.762 234.416 288.527V125.186C234.488 123.955 234.293 122.723 233.844 121.575C233.396 120.426 232.704 119.388 231.817 118.532C230.93 117.676 229.868 117.021 228.705 116.614C227.541 116.206 226.303 116.055 225.076 116.171V110.74C234.063 109.925 264.037 108.811 284.318 108.811C327.759 108.811 351 131.839 351 201.141C351 272.152 331.587 304.332 284.861 304.332L284.888 304.25ZM290.807 136.972C286.87 136.972 270.39 136.972 268.707 137.243V276.009C270.39 276.28 287.142 276.28 289.124 276.28C307.125 276.28 315.569 255.153 315.569 201.141C315.569 150.414 304.871 136.972 290.807 136.972ZM161.815 116.388V110.957C161.815 110.957 139.606 111.12 121.849 110.957C121.849 110.957 117.994 115.437 117.994 126.463V263.028C117.994 273.89 110.093 279.322 100.808 279.322C92.0925 279.322 83.9473 274.922 83.9473 263.028V126.544C83.9473 119.701 87.8841 116.144 93.2328 116.144V110.93H55.575C51.7723 115.221 49.7692 120.814 49.982 126.544V266.395C50.3317 271.777 49.6592 277.177 48 282.309C54.3631 290.198 62.4228 296.552 71.5796 300.896C80.7365 305.24 90.7547 307.463 100.889 307.4C121.286 306.966 141.648 305.498 161.896 303.001V297.652C160.754 297.729 159.608 297.579 158.524 297.21C157.44 296.842 156.44 296.262 155.582 295.504C154.723 294.747 154.024 293.826 153.523 292.797C153.022 291.767 152.731 290.648 152.665 289.505C152.652 289.279 152.652 289.052 152.665 288.826V125.458C152.547 123.179 153.339 120.946 154.866 119.25C156.393 117.554 158.532 116.534 160.81 116.415C161.154 116.388 161.499 116.388 161.842 116.415L161.815 116.388Z" fill="white"/>
</svg>
